<svg width="25" height="25" viewBox="0 0 25 25" fill="none" xmlns="http://www.w3.org/2000/svg">
<path d="M9.89062 22.125H15.8906C20.8906 22.125 22.8906 20.125 22.8906 15.125V9.125C22.8906 4.125 20.8906 2.125 15.8906 2.125H9.89062C4.89062 2.125 2.89062 4.125 2.89062 9.125V15.125C2.89062 20.125 4.89062 22.125 9.89062 22.125Z" stroke="#9197B3" stroke-width="1.5" stroke-linecap="round" stroke-linejoin="round"/>
<path d="M17.1679 13.7356C16.0379 14.8656 14.4179 15.2156 12.9879 14.7656L10.3979 17.3456C10.2179 17.5356 9.84789 17.6556 9.57789 17.6156L8.37789 17.4556C7.97789 17.4056 7.61789 17.0256 7.55789 16.6356L7.39789 15.4356C7.35789 15.1756 7.48789 14.8056 7.66789 14.6156L10.2479 12.0356C9.80789 10.6056 10.1479 8.98563 11.2779 7.85563C12.8979 6.23562 15.5379 6.23562 17.1679 7.85563C18.7879 9.46563 18.7879 12.1056 17.1679 13.7356Z" stroke="#9197B3" stroke-width="1.5" stroke-miterlimit="10" stroke-linecap="round" stroke-linejoin="round"/>
<path d="M11.3422 16.4069L10.4922 15.5469" stroke="#9197B3" stroke-width="1.5" stroke-miterlimit="10" stroke-linecap="round" stroke-linejoin="round"/>
<path d="M14.2812 10.8281H14.2902" stroke="#9197B3" stroke-width="2" stroke-linecap="round" stroke-linejoin="round"/>
</svg>
